<svg width="84" height="22" viewBox="0 0 84 22" fill="none" xmlns="http://www.w3.org/2000/svg">
<path d="M19.8047 19.8672C19.7786 19.6328 19.7396 19.2812 19.6875 18.8125C19.6615 18.3177 19.6224 17.7708 19.5703 17.1719C19.5443 16.5729 19.5052 15.9479 19.4531 15.2969C19.401 14.6198 19.3359 13.9818 19.2578 13.3828C19.2057 12.7839 19.1536 12.25 19.1016 11.7812C19.0755 11.3125 19.0495 10.9609 19.0234 10.7266C19.0234 10.6484 19.0104 10.5182 18.9844 10.3359C18.9583 10.1276 18.9062 9.91927 18.8281 9.71094C18.776 9.47656 18.6849 9.26823 18.5547 9.08594C18.4245 8.90365 18.2552 8.8125 18.0469 8.8125C17.6562 8.8125 17.1875 8.89062 16.6406 9.04688C16.0938 9.20312 15.5208 9.3724 14.9219 9.55469C14.349 9.73698 13.776 9.89323 13.2031 10.0234C12.6562 10.1536 12.1484 10.2188 11.6797 10.2188C10.7422 10.2188 9.90885 10.0495 9.17969 9.71094C8.45052 9.3724 7.7474 9.00781 7.07031 8.61719C6.41927 8.22656 5.74219 7.86198 5.03906 7.52344C4.36198 7.1849 3.59375 7.01562 2.73438 7.01562C2.73438 8.55208 2.78646 10.0495 2.89062 11.5078C3.02083 12.9661 3.08594 14.4375 3.08594 15.9219C3.08594 16.0521 3.07292 16.2214 3.04688 16.4297C3.04688 16.612 3.04688 16.7812 3.04688 16.9375C3.02083 17.1458 3.00781 17.3542 3.00781 17.5625L1.13281 18.6953L0.78125 18.3828C0.755208 18.3568 0.729167 18.2005 0.703125 17.9141C0.703125 17.6276 0.690104 17.25 0.664062 16.7812C0.638021 16.3125 0.611979 15.7917 0.585938 15.2188C0.559896 14.6458 0.520833 14.0729 0.46875 13.5C0.442708 12.901 0.416667 12.3281 0.390625 11.7812C0.390625 11.2083 0.377604 10.7266 0.351562 10.3359V9.86719C0.351562 9.58073 0.338542 9.26823 0.3125 8.92969C0.3125 8.5651 0.3125 8.20052 0.3125 7.83594V6.23438C0.3125 5.89583 0.3125 5.54427 0.3125 5.17969C0.338542 4.8151 0.351562 4.47656 0.351562 4.16406V3.5C0.403646 3.26562 0.533854 3.13542 0.742188 3.10938C0.950521 3.08333 1.14583 3.07031 1.32812 3.07031C1.35417 3.07031 1.44531 3.08333 1.60156 3.10938C1.78385 3.13542 1.88802 3.14844 1.91406 3.14844C2.79948 3.77344 3.63281 4.3724 4.41406 4.94531C5.22135 5.51823 6.02865 6.02604 6.83594 6.46875C7.66927 6.88542 8.52865 7.22396 9.41406 7.48438C10.2995 7.74479 11.2891 7.875 12.3828 7.875C12.9297 8.05729 13.5156 8.05729 14.1406 7.875C14.7656 7.66667 15.3776 7.39323 15.9766 7.05469C16.5755 6.6901 17.1354 6.3125 17.6562 5.92188C18.2031 5.53125 18.6589 5.21875 19.0234 4.98438C19.2839 4.98438 19.5182 5.0625 19.7266 5.21875C19.9609 5.375 20.1693 5.57031 20.3516 5.80469C20.5339 6.03906 20.6641 6.28646 20.7422 6.54688C20.8464 6.80729 20.9115 7.06771 20.9375 7.32812C20.9375 7.58854 20.9635 7.99219 21.0156 8.53906C21.0938 9.0599 21.1719 9.65885 21.25 10.3359L21.7188 14.5938C21.7969 15.2448 21.862 15.8438 21.9141 16.3906C21.9922 16.9375 22.0443 17.3281 22.0703 17.5625C22.0964 17.8229 22.1484 18.0573 22.2266 18.2656L22.5 18.9688C22.6042 19.1771 22.6953 19.3984 22.7734 19.6328C22.8516 19.8672 22.8906 20.0755 22.8906 20.2578C22.8906 20.4661 22.8125 20.6224 22.6562 20.7266C22.526 20.8307 22.3698 20.9089 22.1875 20.9609C22.0312 21.013 21.8359 21.0391 21.6016 21.0391H21.0938C20.7031 21.0391 20.4167 20.9479 20.2344 20.7656C20.0781 20.5573 19.9349 20.2578 19.8047 19.8672ZM34.8047 19.0859C34.388 19.0859 33.9453 19.151 33.4766 19.2812C33.0339 19.3854 32.5911 19.5156 32.1484 19.6719C31.7057 19.8281 31.237 19.9714 30.7422 20.1016C30.2734 20.2057 29.7917 20.2578 29.2969 20.2578C28.5417 20.2578 27.8125 20.1406 27.1094 19.9062C26.4062 19.6719 25.7812 19.3203 25.2344 18.8516C24.7135 18.3828 24.2969 17.8229 23.9844 17.1719C23.6719 16.4948 23.5156 15.7396 23.5156 14.9062C23.5156 14.1771 23.737 13.5 24.1797 12.875C24.6484 12.25 25.2214 11.7292 25.8984 11.3125C26.5755 10.8958 27.3047 10.5703 28.0859 10.3359C28.8672 10.1016 29.5703 9.98438 30.1953 9.98438C30.4818 9.98438 30.8333 10.0104 31.25 10.0625C31.6927 10.0885 32.1615 10.1536 32.6562 10.2578C33.1771 10.3359 33.6979 10.4531 34.2188 10.6094C34.7396 10.7396 35.2083 10.9219 35.625 11.1562C36.0677 11.3906 36.4323 11.6641 36.7188 11.9766C37.0312 12.263 37.2135 12.6016 37.2656 12.9922C37.2656 13.1224 37.2396 13.3568 37.1875 13.6953C37.1354 14.0078 37.0964 14.3464 37.0703 14.7109C37.0443 15.0755 37.0052 15.4271 36.9531 15.7656C36.9271 16.0781 36.901 16.3125 36.875 16.4688V16.7031C36.875 17.276 37.0052 17.7057 37.2656 17.9922C37.526 18.2786 37.8385 18.487 38.2031 18.6172C38.5938 18.7214 38.9974 18.7734 39.4141 18.7734H40.6641C41.0547 18.7734 41.3021 18.7734 41.4062 18.7734C41.5104 18.7474 41.5755 18.7344 41.6016 18.7344C41.6536 18.7344 41.7188 18.7344 41.7969 18.7344C41.901 18.7083 42.1615 18.6953 42.5781 18.6953C42.9167 18.6953 43.1771 18.7604 43.3594 18.8906C43.5417 19.0208 43.6328 19.2943 43.6328 19.7109C43.6328 20.1536 43.4896 20.4661 43.2031 20.6484C42.9167 20.8307 42.5781 20.9479 42.1875 21C41.7969 21.0781 41.4062 21.1042 41.0156 21.0781C40.625 21.0521 40.3255 21.0391 40.1172 21.0391C39.5182 21.0391 38.9453 20.9349 38.3984 20.7266C37.8776 20.5182 37.3958 20.2969 36.9531 20.0625C36.5104 19.8021 36.1068 19.5807 35.7422 19.3984C35.3776 19.1901 35.0651 19.0859 34.8047 19.0859ZM25.8203 15.2969C25.8203 15.9219 25.9505 16.4297 26.2109 16.8203C26.4974 17.1849 26.8359 17.4583 27.2266 17.6406C27.6432 17.7969 28.099 17.901 28.5938 17.9531C29.0885 17.9792 29.5703 17.9922 30.0391 17.9922C30.2214 17.9922 30.5208 17.9792 30.9375 17.9531C31.3802 17.9271 31.8359 17.875 32.3047 17.7969C32.7734 17.6927 33.1901 17.5625 33.5547 17.4062C33.9453 17.25 34.1667 17.0547 34.2188 16.8203L35 13.7734C35.0521 13.5651 35 13.3828 34.8438 13.2266C34.6875 13.0703 34.4661 12.9401 34.1797 12.8359C33.9193 12.7318 33.6198 12.6406 33.2812 12.5625C32.9688 12.4844 32.6562 12.4193 32.3438 12.3672C32.0312 12.3151 31.7448 12.276 31.4844 12.25C31.25 12.224 31.1068 12.2109 31.0547 12.2109C30.5859 12.2109 30.0391 12.263 29.4141 12.3672C28.8151 12.4453 28.2422 12.6016 27.6953 12.8359C27.1745 13.0443 26.7318 13.3438 26.3672 13.7344C26.0026 14.125 25.8203 14.6458 25.8203 15.2969ZM48.5547 10.8047C47.8255 10.8047 47.1484 10.8698 46.5234 11C45.9245 11.1042 45.2604 11.1562 44.5312 11.1562C44.2448 11.1562 44.0625 11.0521 43.9844 10.8438C43.9062 10.6094 43.8672 10.388 43.8672 10.1797V9.98438C43.9193 9.88021 43.9974 9.75 44.1016 9.59375C44.2318 9.4375 44.362 9.29427 44.4922 9.16406C44.6224 9.00781 44.7266 8.8776 44.8047 8.77344C44.9089 8.66927 44.974 8.61719 45 8.61719H48.5938V2.75781C48.5938 2.65365 48.6328 2.57552 48.7109 2.52344C48.7891 2.47135 48.8802 2.43229 48.9844 2.40625C49.1146 2.35417 49.2318 2.32812 49.3359 2.32812C49.4401 2.30208 49.5182 2.28906 49.5703 2.28906C49.987 2.28906 50.2865 2.44531 50.4688 2.75781C50.6771 3.04427 50.8073 3.40885 50.8594 3.85156C50.9375 4.29427 50.9635 4.77604 50.9375 5.29688C50.9375 5.81771 50.9375 6.29948 50.9375 6.74219C50.9375 7.1849 50.9635 7.57552 51.0156 7.91406C51.0938 8.22656 51.25 8.39583 51.4844 8.42188C51.6927 8.44792 52.0833 8.5 52.6562 8.57812C53.2552 8.63021 53.8672 8.70833 54.4922 8.8125C55.1432 8.89062 55.7552 8.96875 56.3281 9.04688C56.901 9.125 57.3177 9.17708 57.5781 9.20312C57.6302 9.20312 57.7214 9.22917 57.8516 9.28125C58.0078 9.30729 58.1641 9.33333 58.3203 9.35938C58.5026 9.38542 58.6589 9.42448 58.7891 9.47656C58.9193 9.52865 59.0104 9.56771 59.0625 9.59375C59.1146 9.59375 59.1927 9.64583 59.2969 9.75C59.401 9.85417 59.4531 9.93229 59.4531 9.98438C59.4531 10.1667 59.401 10.3359 59.2969 10.4922C59.1927 10.6484 59.0625 10.7786 58.9062 10.8828C58.75 10.9609 58.5807 11.026 58.3984 11.0781C58.2422 11.1042 58.0859 11.1172 57.9297 11.1172C57.8776 11.1172 57.7344 11.1042 57.5 11.0781C57.2656 11.026 57.0182 10.974 56.7578 10.9219C56.5234 10.8698 56.2891 10.8307 56.0547 10.8047C55.8464 10.7526 55.7161 10.7266 55.6641 10.7266H55.2734C55.0391 10.7266 54.7917 10.7266 54.5312 10.7266C54.2708 10.7266 54.0104 10.7266 53.75 10.7266H52.6953C52.513 10.7266 52.3307 10.7266 52.1484 10.7266C51.9661 10.7266 51.8099 10.7266 51.6797 10.7266H51.4844L51.0938 11.1172C51.0938 11.1432 51.0938 11.2344 51.0938 11.3906C51.0938 11.5469 51.0807 11.7292 51.0547 11.9375C51.0286 12.1458 51.0026 12.3672 50.9766 12.6016C50.9766 12.8099 50.9766 12.9792 50.9766 13.1094C50.9766 14.5156 51.1198 15.6224 51.4062 16.4297C51.6927 17.237 52.1354 17.849 52.7344 18.2656C53.3594 18.6562 54.1406 18.9036 55.0781 19.0078C56.0417 19.0859 57.2135 19.125 58.5938 19.125C58.75 19.125 58.9583 19.125 59.2188 19.125C59.4792 19.125 59.7396 19.125 60 19.125C60.2604 19.125 60.4818 19.125 60.6641 19.125C60.8464 19.099 60.9505 19.0859 60.9766 19.0859C61.0026 19.0859 61.0677 19.0729 61.1719 19.0469C61.276 18.9948 61.3932 18.9557 61.5234 18.9297C61.6797 18.8776 61.7969 18.8255 61.875 18.7734C61.9792 18.7214 62.0573 18.6953 62.1094 18.6953C62.2135 18.6953 62.2917 18.7474 62.3438 18.8516C62.4219 18.9297 62.474 19.0339 62.5 19.1641C62.526 19.2943 62.5391 19.4115 62.5391 19.5156V19.7891C62.5391 20.2057 62.4479 20.5052 62.2656 20.6875C62.0833 20.8698 61.6536 20.974 60.9766 21H60.3125C60 21 59.6745 21 59.3359 21C59.0234 21.026 58.6979 21.0391 58.3594 21.0391H57.7734C56.2891 21.0391 55.026 20.987 53.9844 20.8828C52.9427 20.7526 52.0833 20.5573 51.4062 20.2969C50.7292 20.0104 50.1953 19.6328 49.8047 19.1641C49.4141 18.6953 49.1276 18.0833 48.9453 17.3281C48.7891 16.5729 48.6849 15.6615 48.6328 14.5938C48.5807 13.526 48.5547 12.263 48.5547 10.8047ZM75.5078 12.6016C74.7266 12.6016 74.0495 12.7448 73.4766 13.0312C72.9297 13.3177 72.4349 13.6693 71.9922 14.0859C71.5495 14.5026 71.1719 14.9714 70.8594 15.4922C70.5469 15.987 70.2344 16.4557 69.9219 16.8984C69.6094 17.3151 69.2839 17.6667 68.9453 17.9531C68.6068 18.2396 68.2161 18.3828 67.7734 18.3828C67.4609 18.3828 67.2135 18.2526 67.0312 17.9922C66.875 17.7318 66.7578 17.4583 66.6797 17.1719C66.3411 16.0521 65.9896 14.8542 65.625 13.5781C65.2865 12.276 64.9609 10.9609 64.6484 9.63281C64.3359 8.30469 64.0755 6.97656 63.8672 5.64844C63.6589 4.29427 63.5547 3.00521 63.5547 1.78125V1.54688C63.5547 1.41667 63.5547 1.28646 63.5547 1.15625C63.5807 1 63.5938 0.869792 63.5938 0.765625V0.453125C63.6458 0.21875 63.776 0.101562 63.9844 0.101562C64.1927 0.0755208 64.388 0.0625 64.5703 0.0625C64.5964 0.0625 64.6875 0.0625 64.8438 0.0625C65.026 0.0625 65.1302 0.0625 65.1562 0.0625C65.2083 0.453125 65.2995 1.05208 65.4297 1.85938C65.5599 2.66667 65.7161 3.5651 65.8984 4.55469C66.1068 5.54427 66.3151 6.57292 66.5234 7.64062C66.7578 8.68229 66.9922 9.63281 67.2266 10.4922C67.487 11.3516 67.7474 12.0547 68.0078 12.6016C68.2682 13.1484 68.5156 13.4219 68.75 13.4219C69.1406 13.4219 69.5964 13.2656 70.1172 12.9531C70.638 12.6406 71.1849 12.2891 71.7578 11.8984C72.3568 11.5078 72.9818 11.1432 73.6328 10.8047C74.3099 10.4661 75.013 10.2969 75.7422 10.2969C75.8984 10.2969 76.1068 10.3099 76.3672 10.3359C76.6276 10.3359 76.888 10.349 77.1484 10.375C77.4349 10.401 77.6953 10.4401 77.9297 10.4922C78.1901 10.5443 78.3594 10.6224 78.4375 10.7266L81.9141 14.1641C82.1224 14.3724 82.3047 14.75 82.4609 15.2969C82.6172 15.8438 82.7474 16.4297 82.8516 17.0547C82.9557 17.6797 83.0208 18.2786 83.0469 18.8516C83.0729 19.3984 83.0859 19.8281 83.0859 20.1406C83.0859 20.5052 82.9688 20.7526 82.7344 20.8828C82.5 20.987 82.2266 21.0391 81.9141 21.0391C81.4974 21.0391 81.1979 20.8307 81.0156 20.4141C80.8333 19.9974 80.6641 19.4766 80.5078 18.8516C80.3776 18.2005 80.2214 17.5234 80.0391 16.8203C79.8568 16.0911 79.5964 15.4141 79.2578 14.7891C78.9193 14.138 78.4505 13.6172 77.8516 13.2266C77.2786 12.8099 76.4974 12.6016 75.5078 12.6016Z" fill="#E5F9E0"/>
</svg>
